<svg viewBox="0 0 1700 1160" xmlns="http://www.w3.org/2000/svg" role="img" aria-label="Flujo de una compra a través de los dominios Identity, Catalog y Sales del monolito Amaranta, y el camino hacia microservicios">
  <title>Amaranta — flujo por dominios: monolito hoy, microservicios mañana</title>

  <defs>
    <marker id="arrow-ink" viewBox="0 0 10 10" refX="8.5" refY="5" markerWidth="7" markerHeight="7" orient="auto-start-reverse">
      <path d="M0,0 L10,5 L0,10 z" fill="#241521"/>
    </marker>
    <marker id="arrow-amaranth" viewBox="0 0 10 10" refX="8.5" refY="5" markerWidth="7" markerHeight="7" orient="auto-start-reverse">
      <path d="M0,0 L10,5 L0,10 z" fill="#d6336c"/>
    </marker>
    <marker id="arrow-sage" viewBox="0 0 10 10" refX="8.5" refY="5" markerWidth="7" markerHeight="7" orient="auto-start-reverse">
      <path d="M0,0 L10,5 L0,10 z" fill="#4c9a6a"/>
    </marker>
    <marker id="arrow-amber" viewBox="0 0 10 10" refX="8.5" refY="5" markerWidth="7" markerHeight="7" orient="auto-start-reverse">
      <path d="M0,0 L10,5 L0,10 z" fill="#c9762e"/>
    </marker>
    <marker id="arrow-grey" viewBox="0 0 10 10" refX="8.5" refY="5" markerWidth="7" markerHeight="7" orient="auto-start-reverse">
      <path d="M0,0 L10,5 L0,10 z" fill="#8a8a8a"/>
    </marker>
  </defs>

  <!-- fondo -->
  <rect x="0" y="0" width="1700" height="1160" fill="#ffffff"/>

  <!-- ================= TITULO ================= -->
  <text x="850" y="42" text-anchor="middle" font-family="Helvetica, Arial, sans-serif" font-size="27" font-weight="700" fill="#96184a">Amaranta — flujo por dominios</text>
  <text x="850" y="66" text-anchor="middle" font-family="Helvetica, Arial, sans-serif" font-size="14" fill="#555555">Cómo viaja una compra a través de los 3 módulos del monolito, y qué cambia al pasar a microservicios</text>

  <!-- ================= PANEL HOY ================= -->
  <rect x="40" y="130" width="1620" height="430" rx="18" fill="#fffaf3" stroke="#f3d9e4" stroke-width="2"/>
  <rect x="60" y="104" width="110" height="34" rx="17" fill="#d6336c"/>
  <text x="115" y="126" text-anchor="middle" font-family="Helvetica, Arial, sans-serif" font-size="14" font-weight="700" fill="#ffffff">HOY</text>

  <!-- Usuario -->
  <rect x="80" y="260" width="170" height="150" rx="14" fill="#ffffff" stroke="#241521" stroke-width="1.5"/>
  <circle cx="165" cy="303" r="17" fill="#241521"/>
  <path d="M133,352 Q165,318 197,352 L197,360 L133,360 Z" fill="#241521"/>
  <text x="165" y="378" text-anchor="middle" font-family="Helvetica, Arial, sans-serif" font-size="14" font-weight="700" fill="#241521">Usuario</text>
  <text x="165" y="394" text-anchor="middle" font-family="Helvetica, Arial, sans-serif" font-size="10.5" fill="#666666">(navegador)</text>

  <!-- Web -->
  <rect x="330" y="260" width="210" height="150" rx="14" fill="#fce7ef" stroke="#d6336c" stroke-width="1.5"/>
  <text x="435" y="298" text-anchor="middle" font-family="Helvetica, Arial, sans-serif" font-size="15" font-weight="700" fill="#96184a">apps/web</text>
  <text x="435" y="315" text-anchor="middle" font-family="Helvetica, Arial, sans-serif" font-size="10.5" fill="#7a1f45">Next.js — App Router</text>
  <line x1="352" y1="330" x2="518" y2="330" stroke="#e6a9c2" stroke-width="1"/>
  <text x="435" y="352" text-anchor="middle" font-family="Courier New, monospace" font-size="9.5" fill="#7a1f45">/ · /login · /register</text>
  <text x="435" y="368" text-anchor="middle" font-family="Courier New, monospace" font-size="9.5" fill="#7a1f45">/cart · /orders</text>
  <text x="435" y="392" text-anchor="middle" font-family="Helvetica, Arial, sans-serif" font-size="9.5" fill="#96184a">carrito + sesión (JWT) en el navegador</text>

  <!-- flechas entrada -->
  <path id="p-usuario-web" d="M250,335 L326,335" fill="none" stroke="#241521" stroke-width="2" marker-end="url(#arrow-ink)"/>
  <text x="288" y="325" text-anchor="middle" font-family="Helvetica, Arial, sans-serif" font-size="10" fill="#444444">usa</text>

  <path id="p-web-api" d="M544,335 L606,335" fill="none" stroke="#241521" stroke-width="2" marker-end="url(#arrow-ink)"/>
  <text x="575" y="322" text-anchor="middle" font-family="Helvetica, Arial, sans-serif" font-size="9.5" fill="#444444">HTTP</text>
  <text x="575" y="352" text-anchor="middle" font-family="Helvetica, Arial, sans-serif" font-size="9.5" fill="#444444">+JWT</text>

  <!-- Monolito boundary -->
  <text x="630" y="158" font-family="Helvetica, Arial, sans-serif" font-size="13" font-weight="700" fill="#241521">apps/api — monolito NestJS</text>
  <text x="1280" y="158" text-anchor="end" font-family="Helvetica, Arial, sans-serif" font-size="10.5" font-style="italic" fill="#777777">sin API Gateway todavía — el frontend llama directo</text>
  <rect x="610" y="170" width="980" height="360" rx="16" fill="none" stroke="#241521" stroke-width="1.5" stroke-dasharray="6,5"/>

  <!-- ===== Modulo IDENTITY ===== -->
  <g>
    <rect x="640" y="200" width="280" height="300" rx="12" fill="#ffffff" stroke="#d6336c" stroke-width="2"/>
    <rect x="640" y="200" width="8" height="300" rx="4" fill="#d6336c"/>
    <circle cx="900" cy="216" r="4" fill="#d6336c">
      <animate attributeName="opacity" values="1;0.3;1" dur="2.2s" repeatCount="indefinite"/>
    </circle>
    <text x="664" y="228" font-family="Helvetica, Arial, sans-serif" font-size="15" font-weight="700" fill="#96184a">identity</text>
    <text x="664" y="245" font-family="Helvetica, Arial, sans-serif" font-size="10" font-style="italic" fill="#888888">→ identity-service</text>

    <rect x="656" y="264" width="248" height="58" rx="8" fill="#fce7ef"/>
    <text x="668" y="280" font-family="Helvetica, Arial, sans-serif" font-size="10" font-weight="700" fill="#96184a">domain</text>
    <text x="668" y="295" font-family="Helvetica, Arial, sans-serif" font-size="9" fill="#4a1329">User, Email VO</text>
    <text x="668" y="307" font-family="Helvetica, Arial, sans-serif" font-size="9" fill="#4a1329">correo único · rol=CUSTOMER</text>

    <rect x="656" y="330" width="248" height="58" rx="8" fill="#f3f3f3"/>
    <text x="668" y="346" font-family="Helvetica, Arial, sans-serif" font-size="10" font-weight="700" fill="#333333">application</text>
    <text x="668" y="361" font-family="Helvetica, Arial, sans-serif" font-size="9" fill="#444444">RegisterUserUseCase</text>
    <text x="668" y="373" font-family="Helvetica, Arial, sans-serif" font-size="9" fill="#444444">LoginUseCase</text>

    <rect x="656" y="396" width="248" height="58" rx="8" fill="#eeeeee"/>
    <text x="668" y="412" font-family="Helvetica, Arial, sans-serif" font-size="10" font-weight="700" fill="#555555">infrastructure</text>
    <text x="668" y="427" font-family="Helvetica, Arial, sans-serif" font-size="9" fill="#555555">JWT · bcrypt</text>
    <text x="668" y="439" font-family="Helvetica, Arial, sans-serif" font-size="9" fill="#555555">TypeORM</text>

    <ellipse cx="780" cy="470" rx="34" ry="9" fill="none" stroke="#d6336c" stroke-width="1.3"/>
    <path d="M746,470 L746,478 A34,9 0 0 0 814,478 L814,470" fill="none" stroke="#d6336c" stroke-width="1.3"/>
    <text x="780" y="474" text-anchor="middle" font-family="Courier New, monospace" font-size="9" fill="#96184a">identity</text>
  </g>

  <!-- ===== Modulo CATALOG ===== -->
  <g>
    <rect x="955" y="200" width="280" height="300" rx="12" fill="#ffffff" stroke="#4c9a6a" stroke-width="2"/>
    <rect x="955" y="200" width="8" height="300" rx="4" fill="#4c9a6a"/>
    <circle cx="1215" cy="216" r="4" fill="#4c9a6a">
      <animate attributeName="opacity" values="1;0.3;1" dur="2.2s" begin="0.4s" repeatCount="indefinite"/>
    </circle>
    <text x="979" y="228" font-family="Helvetica, Arial, sans-serif" font-size="15" font-weight="700" fill="#2f6b48">catalog</text>
    <text x="979" y="245" font-family="Helvetica, Arial, sans-serif" font-size="10" font-style="italic" fill="#888888">→ catalog-service</text>

    <rect x="971" y="264" width="248" height="58" rx="8" fill="#e0efe1"/>
    <text x="983" y="280" font-family="Helvetica, Arial, sans-serif" font-size="10" font-weight="700" fill="#2f6b48">domain</text>
    <text x="983" y="295" font-family="Helvetica, Arial, sans-serif" font-size="9" fill="#274d34">Product, Money VO</text>
    <text x="983" y="307" font-family="Helvetica, Arial, sans-serif" font-size="9" fill="#274d34">stock nunca negativo</text>

    <rect x="971" y="330" width="248" height="58" rx="8" fill="#f3f3f3"/>
    <text x="983" y="346" font-family="Helvetica, Arial, sans-serif" font-size="10" font-weight="700" fill="#333333">application</text>
    <text x="983" y="361" font-family="Helvetica, Arial, sans-serif" font-size="9" fill="#444444">ListProductsUseCase</text>
    <text x="983" y="373" font-family="Helvetica, Arial, sans-serif" font-size="9" fill="#444444">ReserveStockUseCase</text>

    <rect x="971" y="396" width="248" height="58" rx="8" fill="#eeeeee"/>
    <text x="983" y="412" font-family="Helvetica, Arial, sans-serif" font-size="10" font-weight="700" fill="#555555">infrastructure</text>
    <text x="983" y="427" font-family="Helvetica, Arial, sans-serif" font-size="9" fill="#555555">Controlador REST</text>
    <text x="983" y="439" font-family="Helvetica, Arial, sans-serif" font-size="9" fill="#555555">TypeORM</text>

    <ellipse cx="1095" cy="470" rx="34" ry="9" fill="none" stroke="#4c9a6a" stroke-width="1.3"/>
    <path d="M1061,470 L1061,478 A34,9 0 0 0 1129,478 L1129,470" fill="none" stroke="#4c9a6a" stroke-width="1.3"/>
    <text x="1095" y="474" text-anchor="middle" font-family="Courier New, monospace" font-size="9" fill="#2f6b48">catalog</text>
  </g>

  <!-- ===== Modulo SALES ===== -->
  <g>
    <rect x="1270" y="200" width="280" height="300" rx="12" fill="#ffffff" stroke="#c9762e" stroke-width="2"/>
    <rect x="1270" y="200" width="8" height="300" rx="4" fill="#c9762e"/>
    <circle cx="1530" cy="216" r="4" fill="#c9762e">
      <animate attributeName="opacity" values="1;0.3;1" dur="2.2s" begin="0.8s" repeatCount="indefinite"/>
    </circle>
    <text x="1294" y="228" font-family="Helvetica, Arial, sans-serif" font-size="15" font-weight="700" fill="#9c5a20">sales</text>
    <text x="1294" y="245" font-family="Helvetica, Arial, sans-serif" font-size="10" font-style="italic" fill="#888888">→ sales-service</text>

    <rect x="1286" y="264" width="248" height="58" rx="8" fill="#f7e6d3"/>
    <text x="1298" y="280" font-family="Helvetica, Arial, sans-serif" font-size="10" font-weight="700" fill="#9c5a20">domain</text>
    <text x="1298" y="295" font-family="Helvetica, Arial, sans-serif" font-size="9" fill="#5f3712">Order, OrderItem</text>
    <text x="1298" y="307" font-family="Helvetica, Arial, sans-serif" font-size="9" fill="#5f3712">total consistente · ≥1 ítem</text>

    <rect x="1286" y="330" width="248" height="58" rx="8" fill="#f3f3f3"/>
    <text x="1298" y="346" font-family="Helvetica, Arial, sans-serif" font-size="10" font-weight="700" fill="#333333">application</text>
    <text x="1298" y="361" font-family="Helvetica, Arial, sans-serif" font-size="9" fill="#444444">CheckoutUseCase</text>
    <text x="1298" y="373" font-family="Helvetica, Arial, sans-serif" font-size="9" fill="#444444">ListMyOrdersUseCase</text>

    <rect x="1286" y="396" width="248" height="58" rx="8" fill="#eeeeee"/>
    <text x="1298" y="412" font-family="Helvetica, Arial, sans-serif" font-size="10" font-weight="700" fill="#555555">infrastructure</text>
    <text x="1298" y="427" font-family="Helvetica, Arial, sans-serif" font-size="9" fill="#555555">Adaptador → Catalog</text>
    <text x="1298" y="439" font-family="Helvetica, Arial, sans-serif" font-size="9" fill="#555555">Listener de eventos</text>

    <ellipse cx="1410" cy="470" rx="34" ry="9" fill="none" stroke="#c9762e" stroke-width="1.3"/>
    <path d="M1376,470 L1376,478 A34,9 0 0 0 1444,478 L1444,470" fill="none" stroke="#c9762e" stroke-width="1.3"/>
    <text x="1410" y="474" text-anchor="middle" font-family="Courier New, monospace" font-size="9" fill="#9c5a20">sales</text>
  </g>

  <!-- cruce Sales -> Catalog -->
  <path id="p-sales-catalog" d="M1410,500 C1410,545 1095,545 1095,500" fill="none" stroke="#c9762e" stroke-width="2.2" marker-end="url(#arrow-amber)"/>
  <text x="1252" y="530" text-anchor="middle" font-family="Helvetica, Arial, sans-serif" font-size="10" fill="#9c5a20">valida stock / precio</text>
  <text x="1252" y="542" text-anchor="middle" font-family="Helvetica, Arial, sans-serif" font-size="9" font-style="italic" fill="#a06a30">(llamada directa, mismo proceso)</text>

  <!-- evento -->
  <path id="p-sales-evento" d="M1410,500 L1410,522" fill="none" stroke="#c9762e" stroke-width="2" marker-end="url(#arrow-amber)"/>
  <text x="1420" y="528" font-family="Helvetica, Arial, sans-serif" font-size="10" fill="#9c5a20">⚡ OrderCreated → log (simulado)</text>

  <!-- ================= CONECTORES HOY -> MAÑANA ================= -->
  <path d="M780,560 L780,648" fill="none" stroke="#8a8a8a" stroke-width="1.6" stroke-dasharray="5,4" marker-end="url(#arrow-grey)"/>
  <text x="780" y="600" text-anchor="middle" font-family="Helvetica, Arial, sans-serif" font-size="9.5" fill="#666666">sin cambios</text>
  <text x="780" y="612" text-anchor="middle" font-family="Helvetica, Arial, sans-serif" font-size="9.5" fill="#666666">(Open Host / JWT)</text>

  <path d="M1095,560 L1095,648" fill="none" stroke="#8a8a8a" stroke-width="1.6" stroke-dasharray="5,4" marker-end="url(#arrow-grey)"/>
  <text x="1095" y="600" text-anchor="middle" font-family="Helvetica, Arial, sans-serif" font-size="9.5" fill="#666666">+ eventos</text>
  <text x="1095" y="612" text-anchor="middle" font-family="Helvetica, Arial, sans-serif" font-size="9.5" fill="#666666">StockReserved/Depleted</text>

  <path d="M1410,560 L1410,648" fill="none" stroke="#8a8a8a" stroke-width="1.6" stroke-dasharray="5,4" marker-end="url(#arrow-grey)"/>
  <text x="1410" y="600" text-anchor="middle" font-family="Helvetica, Arial, sans-serif" font-size="9.5" fill="#666666">adaptador →</text>
  <text x="1410" y="612" text-anchor="middle" font-family="Helvetica, Arial, sans-serif" font-size="9.5" fill="#666666">HTTP + RabbitMQ</text>

  <!-- ================= PANEL MAÑANA ================= -->
  <rect x="40" y="650" width="1620" height="420" rx="18" fill="#f7f7f7" stroke="#bbbbbb" stroke-width="2" stroke-dasharray="8,6"/>
  <rect x="60" y="624" width="215" height="34" rx="17" fill="#5a5a5a"/>
  <text x="167" y="646" text-anchor="middle" font-family="Helvetica, Arial, sans-serif" font-size="13" font-weight="700" fill="#ffffff">MAÑANA (objetivo)</text>

  <!-- API Gateway -->
  <rect x="80" y="700" width="170" height="100" rx="12" fill="#eeeeee" stroke="#8a8a8a" stroke-width="1.5" stroke-dasharray="4,3"/>
  <text x="165" y="730" text-anchor="middle" font-family="Helvetica, Arial, sans-serif" font-size="13" font-weight="700" fill="#333333">API Gateway</text>
  <text x="165" y="746" text-anchor="middle" font-family="Helvetica, Arial, sans-serif" font-size="9.5" fill="#666666">(Kong)</text>
  <text x="165" y="768" text-anchor="middle" font-family="Helvetica, Arial, sans-serif" font-size="9" font-style="italic" fill="#777777">+ service discovery</text>
  <text x="165" y="782" text-anchor="middle" font-family="Helvetica, Arial, sans-serif" font-size="9" font-style="italic" fill="#777777">(Consul)</text>

  <!-- bus de ruteo -->
  <path d="M165,700 L165,680 L935,680" fill="none" stroke="#8a8a8a" stroke-width="1.6"/>
  <text x="300" y="670" font-family="Helvetica, Arial, sans-serif" font-size="9.5" fill="#666666">enruta cada request al servicio correcto</text>
  <path d="M415,680 L415,698" fill="none" stroke="#8a8a8a" stroke-width="1.6" marker-end="url(#arrow-grey)"/>
  <path d="M675,680 L675,698" fill="none" stroke="#8a8a8a" stroke-width="1.6" marker-end="url(#arrow-grey)"/>
  <path d="M935,680 L935,698" fill="none" stroke="#8a8a8a" stroke-width="1.6" marker-end="url(#arrow-grey)"/>

  <!-- identity-service -->
  <rect x="300" y="700" width="230" height="100" rx="12" fill="#fce7ef" stroke="#d6336c" stroke-width="1.5"/>
  <text x="415" y="738" text-anchor="middle" font-family="Helvetica, Arial, sans-serif" font-size="13" font-weight="700" fill="#96184a">identity-service</text>
  <text x="415" y="756" text-anchor="middle" font-family="Helvetica, Arial, sans-serif" font-size="9.5" fill="#7a1f45">mismo dominio, mismos casos de uso</text>
  <text x="415" y="770" text-anchor="middle" font-family="Helvetica, Arial, sans-serif" font-size="9.5" fill="#7a1f45">— solo cambia infrastructure/</text>

  <!-- catalog-service -->
  <rect x="560" y="700" width="230" height="100" rx="12" fill="#e0efe1" stroke="#4c9a6a" stroke-width="1.5"/>
  <text x="675" y="738" text-anchor="middle" font-family="Helvetica, Arial, sans-serif" font-size="13" font-weight="700" fill="#2f6b48">catalog-service</text>
  <text x="675" y="756" text-anchor="middle" font-family="Helvetica, Arial, sans-serif" font-size="9.5" fill="#274d34">expone StockReserved /</text>
  <text x="675" y="770" text-anchor="middle" font-family="Helvetica, Arial, sans-serif" font-size="9.5" fill="#274d34">StockDepleted por evento</text>

  <!-- sales-service -->
  <rect x="820" y="700" width="230" height="100" rx="12" fill="#f7e6d3" stroke="#c9762e" stroke-width="1.5"/>
  <text x="935" y="738" text-anchor="middle" font-family="Helvetica, Arial, sans-serif" font-size="13" font-weight="700" fill="#9c5a20">sales-service</text>
  <text x="935" y="756" text-anchor="middle" font-family="Helvetica, Arial, sans-serif" font-size="9.5" fill="#5f3712">catalog-stock.adapter pasa</text>
  <text x="935" y="770" text-anchor="middle" font-family="Helvetica, Arial, sans-serif" font-size="9.5" fill="#5f3712">de llamada directa a HTTP</text>

  <!-- notification-service -->
  <rect x="1150" y="700" width="200" height="100" rx="12" fill="#eef2f6" stroke="#5a7a9c" stroke-width="1.5" stroke-dasharray="4,3"/>
  <text x="1250" y="738" text-anchor="middle" font-family="Helvetica, Arial, sans-serif" font-size="13" font-weight="700" fill="#33526e">notification-service</text>
  <text x="1250" y="756" text-anchor="middle" font-family="Helvetica, Arial, sans-serif" font-size="9.5" fill="#33526e">nuevo — hoy es solo</text>
  <text x="1250" y="770" text-anchor="middle" font-family="Helvetica, Arial, sans-serif" font-size="9.5" fill="#33526e">un listener que imprime log</text>

  <!-- bases de datos propias -->
  <g>
    <path d="M375,830 a40,10 0 1,0 80,0 a40,10 0 1,0 -80,0 M375,830 v45 a40,10 0 1,0 80,0 v-45" fill="#fce7ef" stroke="#d6336c" stroke-width="1.3"/>
    <text x="415" y="862" text-anchor="middle" font-family="Courier New, monospace" font-size="9.5" fill="#96184a">BD identity</text>
  </g>
  <g>
    <path d="M635,830 a40,10 0 1,0 80,0 a40,10 0 1,0 -80,0 M635,830 v45 a40,10 0 1,0 80,0 v-45" fill="#e0efe1" stroke="#4c9a6a" stroke-width="1.3"/>
    <text x="675" y="862" text-anchor="middle" font-family="Courier New, monospace" font-size="9.5" fill="#2f6b48">BD catalog</text>
  </g>
  <g>
    <path d="M855,830 a40,10 0 1,0 80,0 a40,10 0 1,0 -80,0 M855,830 v45 a40,10 0 1,0 80,0 v-45" fill="#f7e6d3" stroke="#c9762e" stroke-width="1.3"/>
    <text x="895" y="862" text-anchor="middle" font-family="Courier New, monospace" font-size="9.5" fill="#9c5a20">BD sales</text>
  </g>
  <path d="M415,800 L415,826" fill="none" stroke="#d6336c" stroke-width="1.6" marker-end="url(#arrow-amaranth)"/>
  <path d="M675,800 L675,826" fill="none" stroke="#4c9a6a" stroke-width="1.6" marker-end="url(#arrow-sage)"/>
  <path d="M895,800 L895,826" fill="none" stroke="#c9762e" stroke-width="1.6" marker-end="url(#arrow-amber)"/>

  <!-- RabbitMQ -->
  <rect x="895" y="945" width="180" height="70" rx="10" fill="#ffffff" stroke="#c9762e" stroke-width="1.6" stroke-dasharray="4,3"/>
  <text x="985" y="972" text-anchor="middle" font-family="Helvetica, Arial, sans-serif" font-size="12.5" font-weight="700" fill="#9c5a20">RabbitMQ</text>
  <text x="985" y="987" text-anchor="middle" font-family="Helvetica, Arial, sans-serif" font-size="9" font-style="italic" fill="#a06a30">(objetivo — hoy es EventEmitter2)</text>

  <path id="p-sales-rabbit" d="M985,800 L985,943" fill="none" stroke="#c9762e" stroke-width="1.8" marker-end="url(#arrow-amber)"/>
  <text x="998" y="875" font-family="Helvetica, Arial, sans-serif" font-size="9.5" fill="#9c5a20">OrderCreated</text>

  <path d="M945,945 L945,915 L675,915 L675,802" fill="none" stroke="#4c9a6a" stroke-width="1.6" stroke-dasharray="3,3" marker-end="url(#arrow-sage)"/>
  <text x="800" y="908" text-anchor="middle" font-family="Helvetica, Arial, sans-serif" font-size="9.5" fill="#2f6b48">consume → reserva stock</text>

  <path d="M1025,945 L1025,915 L1250,915 L1250,802" fill="none" stroke="#5a7a9c" stroke-width="1.6" stroke-dasharray="3,3" marker-end="url(#arrow-grey)"/>
  <text x="1140" y="908" text-anchor="middle" font-family="Helvetica, Arial, sans-serif" font-size="9.5" fill="#33526e">consume → envía email</text>

  <!-- puntos animados de flujo -->
  <circle r="5.5" fill="#241521">
    <animateMotion dur="4s" repeatCount="indefinite">
      <mpath href="#p-usuario-web"/>
    </animateMotion>
  </circle>
  <circle r="5.5" fill="#241521">
    <animateMotion dur="3s" begin="0.6s" repeatCount="indefinite">
      <mpath href="#p-web-api"/>
    </animateMotion>
  </circle>
  <circle r="5.5" fill="#c9762e">
    <animateMotion dur="3.2s" repeatCount="indefinite">
      <mpath href="#p-sales-catalog"/>
    </animateMotion>
  </circle>
  <circle r="5" fill="#c9762e">
    <animateMotion dur="2.6s" repeatCount="indefinite">
      <mpath href="#p-sales-rabbit"/>
    </animateMotion>
  </circle>

  <!-- ================= PIE ================= -->
  <text x="850" y="1110" text-anchor="middle" font-family="Helvetica, Arial, sans-serif" font-size="12" fill="#555555">Cada módulo del monolito es, literalmente, el futuro microservicio del mismo nombre — ver docs/path-to-microservices.md</text>
  <text x="850" y="1128" text-anchor="middle" font-family="Helvetica, Arial, sans-serif" font-size="10.5" fill="#999999">github.com/BrandowC/amaranta-shop-mvp</text>
</svg>
